<svg width="32" height="32" viewBox="0 0 32 32" fill="none" xmlns="http://www.w3.org/2000/svg">
<path d="M16 1.77777C13.2313 1.78008 10.576 2.87794 8.61409 4.83154C6.65216 6.78515 5.54302 9.43576 5.52893 12.2044C5.52893 16.3555 7.85782 19.8311 9.56449 22.3644L9.8756 22.8267C11.5736 25.2877 13.3952 27.6611 15.3334 29.9378L16.0089 30.7289L16.6845 29.9378C18.6224 27.6609 20.444 25.2875 22.1423 22.8267L22.4534 22.3555C24.1512 19.8222 26.48 16.3555 26.48 12.2044C26.4659 9.43422 25.3556 6.78227 23.3917 4.82841C21.4279 2.87455 18.7703 1.77774 16 1.77777V1.77777ZM16 16.8889C14.8468 16.8889 13.7194 16.5469 12.7605 15.9062C11.8015 15.2654 11.0541 14.3547 10.6128 13.2892C10.1715 12.2237 10.056 11.0513 10.281 9.92018C10.506 8.78905 11.0613 7.75005 11.8768 6.93455C12.6923 6.11906 13.7313 5.5637 14.8624 5.3387C15.9936 5.11371 17.166 5.22918 18.2315 5.67053C19.297 6.11187 20.2077 6.85926 20.8484 7.81818C21.4892 8.7771 21.8312 9.90449 21.8312 11.0578C21.8312 12.6043 21.2168 14.0874 20.1233 15.181C19.0297 16.2745 17.5465 16.8889 16 16.8889V16.8889Z" fill="black"/>
<path d="M16 14.3733C17.8311 14.3733 19.3156 12.8889 19.3156 11.0577C19.3156 9.22661 17.8311 7.74219 16 7.74219C14.1689 7.74219 12.6844 9.22661 12.6844 11.0577C12.6844 12.8889 14.1689 14.3733 16 14.3733Z" fill="black"/>
</svg>
