<svg width="32" height="32" viewBox="0 0 32 32" fill="none" xmlns="http://www.w3.org/2000/svg">
  <path
    d="M16 0C10.109 0 5.33337 4.77559 5.33337 10.6667C5.33337 12.5613 5.84217 14.3333 6.70831 15.8746C6.85217 16.1306 7.00297 16.3826 7.16671 16.6253L14.2659 28.9816C15.0347 30.3198 16.9653 30.3198 17.7342 28.9816L24.8334 16.6253C24.9694 16.424 25.0867 16.2106 25.208 16L25.292 15.8746C26.1573 14.3333 26.6667 12.5613 26.6667 10.6667C26.6667 4.77559 21.8907 0 16 0ZM16 5.33333C18.9454 5.33333 21.3334 7.72119 21.3334 10.6667C21.3334 13.612 18.9454 16 16 16C13.0546 16 10.6667 13.612 10.6667 10.6667C10.6667 7.72119 13.0546 5.33333 16 5.33333Z"
    fill="black" />
  <path
    d="M16 4C12.3182 4 9.33337 6.9848 9.33337 10.6667C9.33337 14.348 12.3182 17.3333 16 17.3333C19.6814 17.3333 22.6667 14.348 22.6667 10.6667C22.6667 6.9848 19.6814 4 16 4ZM16 6.66666C18.2094 6.66666 20 8.45746 20 10.6667C20 12.8759 18.2094 14.6667 16 14.6667C13.7907 14.6667 12 12.8759 12 10.6667C12 8.45746 13.7907 6.66666 16 6.66666Z"
    fill="black" />
</svg>