<svg width="32" height="32" viewBox="0 0 32 32" fill="none" xmlns="http://www.w3.org/2000/svg">
  <!-- saturate -->
  <filter id="multiplyFilter">
    <feBlend mode="multiply" />
  </filter>
  <path id="solid"
    d="M16 0C10.109 0 5.33337 4.7756 5.33337 10.6667C5.33337 12.5613 5.84217 14.3333 6.70831 15.8747C6.85217 16.1307 7.00297 16.3827 7.16671 16.6253L16 32L24.8334 16.6253C24.9694 16.424 25.0867 16.2107 25.208 16L25.292 15.8747C26.1574 14.3333 26.6667 12.5613 26.6667 10.6667C26.6667 4.7756 21.8907 0 16 0V0ZM16 5.33333C18.9454 5.33333 21.3334 7.7212 21.3334 10.6667C21.3334 13.612 18.9454 16 16 16C13.0546 16 10.6667 13.612 10.6667 10.6667C10.6667 7.7212 13.0546 5.33333 16 5.33333Z"
    fill="grey" />
  <path
    d="M16.0001 4.95239C12.8442 4.95239 10.2858 7.51079 10.2858 10.6667C10.2858 13.8221 12.8442 16.381 16.0001 16.381C19.1555 16.381 21.7143 13.8221 21.7143 10.6667C21.7143 7.51079 19.1555 4.95239 16.0001 4.95239ZM16.0001 7.23811C17.8938 7.23811 19.4286 8.77308 19.4286 10.6667C19.4286 12.5603 17.8938 14.0953 16.0001 14.0953C14.1063 14.0953 12.5715 12.5603 12.5715 10.6667C12.5715 8.77308 14.1063 7.23811 16.0001 7.23811Z"
    fill="black" />
</svg>