<svg width="32" height="32" viewBox="0 0 32 32" fill="none" xmlns="http://www.w3.org/2000/svg">
<path d="M26.4623 11.9911C25.5548 11.9693 24.6614 11.7616 23.8374 11.3809C23.0133 11.0002 22.2761 10.4546 21.6712 9.77778C21.9958 11.1592 21.8073 12.6115 21.1405 13.8642C20.4738 15.1168 19.3744 16.0843 18.0472 16.5865C16.7199 17.0887 15.2554 17.0912 13.9265 16.5936C12.5975 16.096 11.4948 15.1322 10.8238 13.8818C10.1528 12.6315 9.9592 11.1798 10.2791 9.79731C10.5991 8.41481 11.4108 7.19577 12.5629 6.36734C13.715 5.53891 15.129 5.15759 16.5414 5.29443C17.9539 5.43126 19.2684 6.07692 20.24 7.11111C19.8474 5.68665 19.9444 4.17161 20.5156 2.80889C18.9241 2.04026 17.1636 1.68807 15.3989 1.78528C13.6342 1.8825 11.923 2.42594 10.4256 3.36472C8.92813 4.30351 7.69341 5.60693 6.83701 7.15296C5.98061 8.69899 5.53053 10.4371 5.52893 12.2044C5.52893 16.3556 7.85782 19.8311 9.56449 22.3644L9.8756 22.8267C11.5736 25.2877 13.3952 27.6611 15.3334 29.9378L16.0089 30.7289L16.6845 29.9378C18.6224 27.6609 20.444 25.2875 22.1423 22.8267L22.4534 22.3556C24.1512 19.8222 26.48 16.3556 26.48 12.2044C26.4712 12.1333 26.4623 12.0622 26.4623 11.9911V11.9911Z" fill="black"/>
<path d="M16 14.3733C17.8311 14.3733 19.3156 12.8889 19.3156 11.0577C19.3156 9.22661 17.8311 7.74219 16 7.74219C14.1689 7.74219 12.6844 9.22661 12.6844 11.0577C12.6844 12.8889 14.1689 14.3733 16 14.3733Z" fill="black"/>
<path d="M26.6666 9.7778C29.1212 9.7778 31.1111 7.78796 31.1111 5.33336C31.1111 2.87876 29.1212 0.888916 26.6666 0.888916C24.212 0.888916 22.2222 2.87876 22.2222 5.33336C22.2222 7.78796 24.212 9.7778 26.6666 9.7778Z" fill="black"/>
</svg>
