<svg width="32" height="32" viewBox="0 0 32 32" fill="none" xmlns="http://www.w3.org/2000/svg">
<path d="M16 5.97333C14.9926 5.97333 14.0078 6.27205 13.1702 6.83171C12.3327 7.39137 11.6798 8.18684 11.2943 9.11753C10.9088 10.0482 10.808 11.0723 11.0045 12.0603C11.201 13.0483 11.6861 13.9559 12.3984 14.6682C13.1107 15.3805 14.0183 15.8656 15.0063 16.0621C15.9943 16.2587 17.0184 16.1578 17.9491 15.7723C18.8798 15.3868 19.6752 14.734 20.2349 13.8964C20.7946 13.0588 21.0933 12.074 21.0933 11.0667C21.0933 9.71583 20.5567 8.42032 19.6015 7.46513C18.6463 6.50995 17.3508 5.97333 16 5.97333V5.97333ZM16 14.3822C15.3442 14.3822 14.7032 14.1878 14.1579 13.8234C13.6127 13.4591 13.1877 12.9413 12.9368 12.3355C12.6858 11.7296 12.6202 11.063 12.7481 10.4198C12.876 9.77667 13.1918 9.1859 13.6555 8.72221C14.1192 8.25852 14.71 7.94274 15.3531 7.81481C15.9963 7.68688 16.6629 7.75254 17.2688 8.00349C17.8746 8.25443 18.3924 8.6794 18.7567 9.22464C19.1211 9.76988 19.3155 10.4109 19.3155 11.0667C19.3132 11.9445 18.9628 12.7855 18.3413 13.4054C17.7197 14.0252 16.8778 14.3733 16 14.3733V14.3822Z" fill="black"/>
<path d="M26.4623 11.9911C25.8591 11.9743 25.2611 11.8756 24.6845 11.6977V12.2044C24.6845 15.8133 22.5334 19.0222 20.9601 21.3689L20.6401 21.84C19.1112 24.1333 17.0845 26.7022 15.9912 27.9733C14.9423 26.7022 12.8712 24.1333 11.3423 21.84L11.0401 21.3333C9.46672 18.9866 7.30672 15.7777 7.30672 12.1689C7.31211 10.6742 7.70317 9.20622 8.44208 7.90697C9.18098 6.60771 10.2427 5.52115 11.5245 4.75241C12.8064 3.98368 14.2649 3.55878 15.759 3.51884C17.2532 3.47889 18.7323 3.82526 20.0534 4.52441C20.1241 3.91322 20.2797 3.31487 20.5156 2.74663C18.9194 1.97569 17.1532 1.6237 15.3833 1.72383C13.6135 1.82395 11.8983 2.37289 10.3991 3.31895C8.90004 4.265 7.66639 5.57705 6.81436 7.13153C5.96234 8.68601 5.51998 10.4318 5.52894 12.2044C5.52894 16.3555 7.85783 19.8311 9.5645 22.3644L9.87561 22.8266C11.5736 25.2876 13.3952 27.661 15.3334 29.9377L16.0089 30.7289L16.6845 29.9377C18.6224 27.6608 20.444 25.2874 22.1423 22.8266L22.4534 22.3555C24.1512 19.8222 26.4801 16.3555 26.4801 12.2044C26.4712 12.1333 26.4623 12.0622 26.4623 11.9911V11.9911Z" fill="black"/>
<path d="M26.6666 9.7778C29.1212 9.7778 31.1111 7.78796 31.1111 5.33336C31.1111 2.87876 29.1212 0.888916 26.6666 0.888916C24.212 0.888916 22.2222 2.87876 22.2222 5.33336C22.2222 7.78796 24.212 9.7778 26.6666 9.7778Z" fill="black"/>
</svg>
