<svg width="32" height="32" viewBox="0 0 32 32" fill="none" xmlns="http://www.w3.org/2000/svg">
<path d="M8.03379 17.1272L8.01583 17.0959L7.99566 17.066C7.85179 16.8528 7.71544 16.6256 7.58009 16.3848C6.7928 14.9838 6.33337 13.3794 6.33337 11.6667C6.33337 6.32788 10.6613 2 16 2C21.3384 2 25.6667 6.32791 25.6667 11.6667C25.6667 13.3655 25.2142 14.9581 24.4389 16.3515L24.3774 16.4433L24.3584 16.4715L24.3415 16.5009C24.3157 16.5457 24.2915 16.5881 24.2684 16.6284C24.1707 16.7992 24.0937 16.9339 24.0047 17.0656L23.9844 17.0957L23.9663 17.1272L16.8671 29.4835C16.4827 30.1526 15.5174 30.1526 15.133 29.4835L8.03379 17.1272Z" stroke="black" stroke-width="2"/>
<path d="M16.3809 5.95239C13.225 5.95239 10.6666 8.51079 10.6666 11.6667C10.6666 14.8221 13.225 17.381 16.3809 17.381C19.5363 17.381 22.0952 14.8221 22.0952 11.6667C22.0952 8.51079 19.5363 5.95239 16.3809 5.95239ZM16.3809 8.23811C18.2746 8.23811 19.8095 9.77308 19.8095 11.6667C19.8095 13.5603 18.2746 15.0953 16.3809 15.0953C14.4872 15.0953 12.9523 13.5603 12.9523 11.6667C12.9523 9.77308 14.4872 8.23811 16.3809 8.23811Z" fill="black"/>
</svg>
